<svg width="54" height="54" viewBox="0 0 54 54" fill="none" xmlns="http://www.w3.org/2000/svg">
<rect x="0.5" y="0.5" width="53" height="53" rx="17.5" stroke="#E0E0E0"/>
<path d="M16.3333 39H29.16C30.7187 39 32.1947 38.3213 33.2093 37.1373L40.012 29.2013C40.3013 28.864 40.404 28.4053 40.2853 27.9773C40.1667 27.5493 39.8427 27.2093 39.4227 27.068L36.7987 26.1933C35.5307 25.7707 34.076 26.0307 33.0347 26.864L28.788 30.26L27.9653 28.6133C27.056 26.796 25.228 25.6667 23.1947 25.6667H16.3333C14.8627 25.6667 13.6667 26.8627 13.6667 28.3333V36.3333C13.6667 37.804 14.8627 39 16.3333 39ZM16.3333 28.3333H23.1947C24.212 28.3333 25.1253 28.8973 25.58 29.8067L26.176 31H24.3333H21.6667H20.3333V33.6667H21.6667H24.3333H28.3333C28.3347 33.6667 28.336 33.6667 28.336 33.6667C28.3373 33.6667 28.3373 33.6667 28.3373 33.6667C28.3387 33.6667 28.3387 33.6667 28.34 33.6667C28.34 33.6667 28.3427 33.6667 28.348 33.6667C28.3493 33.6667 28.3507 33.6667 28.3507 33.6667C28.352 33.6667 28.352 33.6667 28.352 33.6667C28.56 33.664 28.7627 33.612 28.9413 33.52C28.9427 33.52 28.944 33.52 28.9453 33.5187C28.9467 33.5173 28.9493 33.5173 28.9507 33.516H28.952H28.9533C28.9547 33.516 28.9547 33.516 28.9547 33.516C28.956 33.516 28.956 33.516 28.9573 33.5147H28.9587H28.96C28.9613 33.5147 28.9613 33.5147 28.9613 33.5147C28.9627 33.5147 28.9627 33.5147 28.9627 33.5147C28.964 33.5147 28.964 33.5147 28.964 33.5133C28.976 33.5173 28.968 33.512 28.968 33.512C28.9813 33.512 28.9707 33.5107 28.9707 33.5107C28.972 33.5107 28.972 33.5107 28.972 33.5107C28.9747 33.5107 28.9747 33.5107 28.9747 33.5093C28.976 33.5093 28.9773 33.508 28.9787 33.508C28.98 33.508 28.98 33.508 28.9813 33.5067C28.9813 33.5067 28.9827 33.5053 28.984 33.5053C28.9853 33.5053 28.9867 33.504 28.988 33.504C28.9893 33.504 28.9893 33.504 28.9907 33.5027C28.9947 33.5027 28.992 33.5013 28.9933 33.5013C28.9947 33.5013 28.996 33.5 28.9973 33.4987C28.9987 33.4973 28.9987 33.4987 29 33.4973C29.0013 33.496 29.0013 33.496 29.0027 33.496C29.0053 33.4947 29.0067 33.4947 29.0067 33.4947C29.008 33.4947 29.008 33.4947 29.0093 33.4933C29.0093 33.4933 29.0093 33.4933 29.0107 33.4933C29.012 33.4933 29.0133 33.492 29.0133 33.492C29.0147 33.492 29.0147 33.492 29.0147 33.492C29.016 33.492 29.016 33.492 29.0173 33.4907C29.0187 33.4907 29.0187 33.4907 29.02 33.4893C29.032 33.488 29.024 33.488 29.024 33.488C29.024 33.4867 29.0267 33.4867 29.0267 33.4867C29.0773 33.456 29.1267 33.4213 29.1733 33.3827L34.7013 28.96C35.0507 28.6827 35.532 28.596 35.9547 28.7373L36.6973 28.9853L31.1867 35.416C30.6787 35.9933 29.94 36.3333 29.16 36.3333H16.3333V28.3333ZM32.3333 13.6667C32.3293 13.6667 32.3173 13.6667 32.3107 13.6667C32.0933 13.6693 30.9693 13.7187 29.6667 14.6067C28.3987 13.7427 27.3013 13.6733 27.0427 13.668C27.0307 13.668 27.0107 13.6667 27.0027 13.6667C27.0013 13.6667 27.0013 13.6667 27 13.6667C26.9987 13.6667 26.9973 13.6667 26.9973 13.6667C25.9293 13.6667 24.924 14.084 24.172 14.8373C23.4173 15.5933 23 16.5973 23 17.6667C23 18.736 23.4173 19.74 24.148 20.472L28.7 25.2533C28.9533 25.5173 29.3027 25.6667 29.6667 25.6667C30.0307 25.6667 30.38 25.5173 30.6333 25.252L35.1613 20.4947C35.9173 19.74 36.3333 18.736 36.3333 17.6667C36.3333 16.5973 35.916 15.5933 35.1627 14.8387C34.4093 14.084 33.404 13.6667 32.336 13.6667C32.336 13.6667 32.3347 13.6667 32.3333 13.6667ZM33.6667 17.6667C33.6667 18.0227 33.528 18.3573 33.252 18.6333L29.6667 22.4L26.0573 18.6093C25.8053 18.3573 25.6667 18.0227 25.6667 17.6667C25.6667 17.3107 25.8053 16.976 26.0587 16.7227C26.308 16.472 26.6427 16.3333 26.972 16.3333C27.0053 16.3347 27.6413 16.376 28.3947 16.98C28.5027 17.0667 28.612 17.1653 28.724 17.276L29.6667 18.2187L30.6093 17.276C30.7213 17.1653 30.8307 17.0667 30.9387 16.98C31.644 16.4133 32.24 16.3427 32.3413 16.3347C32.6947 16.336 33.0267 16.4733 33.276 16.724C33.528 16.976 33.6667 17.3107 33.6667 17.6667Z" fill="#2D9CDB"/>
</svg>
