<svg width="54" height="54" viewBox="0 0 54 54" fill="none" xmlns="http://www.w3.org/2000/svg">
<rect x="0.5" y="0.5" width="53" height="53" rx="17.5" stroke="#E0E0E0"/>
<path d="M36.3333 13.6667H23C21.5293 13.6667 20.3333 14.8627 20.3333 16.3333V23.7813L14.0573 30.0573C13.676 30.4387 13.5613 31.012 13.768 31.5107C13.9747 32.0093 14.4613 32.3333 15 32.3333V33.6667V39C15 39.7373 15.5973 40.3333 16.3333 40.3333H27H37.6667C38.404 40.3333 39 39.7373 39 39V16.3333C39 14.8627 37.804 13.6667 36.3333 13.6667ZM25.6667 37.6667H17.6667V33.6667V31V30.2187L21.6667 26.2187L25.6667 30.2187V31V35V37.6667ZM36.3333 37.6667H28.3333V35V32.3333C28.872 32.3333 29.36 32.0093 29.5653 31.5107C29.772 31.012 29.6573 30.4387 29.276 30.0573L23 23.7813V16.3333H36.3333V37.6667Z" fill="#2D9CDB"/>
<path d="M25.6667 19H28.3333V21.6667H25.6667V19ZM31 19H33.6667V21.6667H31V19ZM31 24.3747H33.6667V27H31V24.3747ZM31 29.6667H33.6667V32.3333H31V29.6667ZM20.3333 31H23V33.6667H20.3333V31Z" fill="#2D9CDB"/>
</svg>
