<svg width="54" height="54" viewBox="0 0 54 54" fill="none" xmlns="http://www.w3.org/2000/svg">
<rect x="0.5" y="0.5" width="53" height="53" rx="17.5" stroke="#E0E0E0"/>
<path d="M15 32.3333C15 33.804 16.196 35 17.6667 35H22.448L27 39.552L31.552 35H36.3333C37.804 35 39 33.804 39 32.3333V16.3333C39 14.8627 37.804 13.6667 36.3333 13.6667H17.6667C16.196 13.6667 15 14.8627 15 16.3333V32.3333ZM17.6667 16.3333H36.3333V32.3333H30.448L27 35.7813L23.552 32.3333H17.6667V16.3333Z" fill="#2D9CDB"/>
<path d="M25.6667 29.6667H28.3333V25.6667H32.3333V23H28.3333V19H25.6667V23H21.6667V25.6667H25.6667V29.6667Z" fill="#2D9CDB"/>
</svg>
