<svg width="24" height="24" viewBox="0 0 24 24" fill="none" xmlns="http://www.w3.org/2000/svg">
<path d="M12.707 2.29301C12.316 1.90201 11.684 1.90201 11.293 2.29301L2.29301 11.293C2.00701 11.579 1.92101 12.009 2.07601 12.383C2.23001 12.757 2.59601 13 3.00001 13H4.00001V15V20C4.00001 21.103 4.89701 22 6.00001 22H18C19.103 22 20 21.103 20 20V15V13H21C21.404 13 21.77 12.757 21.924 12.383C22.079 12.009 21.993 11.579 21.707 11.293L12.707 2.29301ZM18.001 20H6.00001V15V12V10.414L12 4.41401L18 10.414V15L18.001 20Z" fill="#EB5757"/>
<path d="M13 10H11V13H8V15H11V18H13V15H16V13H13V10Z" fill="#EB5757"/>
</svg>
